<svg xmlns="http://www.w3.org/2000/svg" version="1.1" xmlns:xlink="http://www.w3.org/1999/xlink" xmlns:svgjs="http://svgjs.com/svgjs" width="1900" height="600" preserveAspectRatio="none" viewBox="0 0 1900 600"><g mask="url(&quot;#SvgjsMask1027&quot;)" fill="none"><rect width="1900" height="600" x="0" y="0" fill="rgba(39, 41, 123, 1)"></rect><path d="M10 600L610 0L1120 0L520 600z" fill="url(#SvgjsLinearGradient1028)"></path><path d="M459 600L1059 0L1248 0L648 600z" fill="url(#SvgjsLinearGradient1028)"></path><path d="M878 600L1478 0L1814 0L1214 600z" fill="url(#SvgjsLinearGradient1028)"></path><path d="M1873 600L1273 0L1063 0L1663 600z" fill="url(#SvgjsLinearGradient1029)"></path><path d="M1444 600L844 0L469 0L1069 600z" fill="url(#SvgjsLinearGradient1029)"></path><path d="M988 600L388 0L16 0L616 600z" fill="url(#SvgjsLinearGradient1029)"></path><path d="M1446.7468048379492 600L1900 146.7468048379493L1900 600z" fill="url(#SvgjsLinearGradient1028)"></path><path d="M0 600L453.2531951620507 600L 0 146.7468048379493z" fill="url(#SvgjsLinearGradient1029)"></path></g><defs><mask id="SvgjsMask1027"><rect width="1900" height="600" fill="#ffffff"></rect></mask><linearGradient x1="0%" y1="100%" x2="100%" y2="0%" id="SvgjsLinearGradient1028"><stop stop-color="rgba(222, 86, 78, 0.1)" offset="0"></stop><stop stop-opacity="0" stop-color="rgba(222, 86, 78, 0.1)" offset="0.66"></stop></linearGradient><linearGradient x1="100%" y1="100%" x2="0%" y2="0%" id="SvgjsLinearGradient1029"><stop stop-color="rgba(222, 86, 78, 0.1)" offset="0"></stop><stop stop-opacity="0" stop-color="rgba(222, 86, 78, 0.1)" offset="0.66"></stop></linearGradient></defs></svg>